<svg width="78" height="78" viewBox="0 0 78 78" fill="none" xmlns="http://www.w3.org/2000/svg">
<path d="M63.661 50.349L57.7655 46.1565C58.7557 42.5158 58.7501 38.676 57.7493 35.0382L63.6643 30.8977L58.942 22.7272L52.364 25.7367C49.7053 23.0588 46.3762 21.144 42.7245 20.1922L42.0973 13H32.6528L32.0255 20.1922C28.3746 21.1453 25.0467 23.0612 22.3893 25.74L15.808 22.7305L11.089 30.901L17.004 35.0415C16.0028 38.6779 15.996 42.5165 16.9845 46.1565L11.089 50.349L15.808 58.4805L22.3893 55.4677C25.0471 58.1453 28.375 60.0601 32.0255 61.0122L32.6528 68.2045H42.0973L42.7245 61.0122C46.375 60.06 49.7029 58.1452 52.3608 55.4677L58.942 58.4805L63.6643 50.3522L63.661 50.349ZM43.8913 9.70123C44.3096 9.70079 44.712 9.8617 45.0147 10.1505C45.3174 10.4392 45.497 10.8336 45.5163 11.2515L46.0948 17.8652C48.4973 18.7808 50.7386 20.0731 52.7345 21.6937L58.747 18.889C59.1184 18.6979 59.5491 18.6572 59.9497 18.7752C60.3503 18.8932 60.6901 19.1609 60.8985 19.5227L67.4148 30.8002C67.6242 31.1617 67.6863 31.59 67.5882 31.996C67.4902 32.4021 67.2395 32.7548 66.8883 32.981L61.4478 36.79C61.8638 39.3835 61.8508 41.9672 61.451 44.4567L66.8883 48.2592C67.2404 48.4854 67.4917 48.8387 67.5897 49.2456C67.6878 49.6524 67.6252 50.0814 67.4148 50.4432L60.8985 61.6785C60.6901 62.0403 60.3503 62.3081 59.9497 62.4261C59.5491 62.5441 59.1184 62.5033 58.747 62.3122L52.7345 59.5075C50.778 61.1 48.5485 62.4 46.0948 63.3392L45.5163 69.953C45.4962 70.3703 45.3162 70.7639 45.0136 71.0519C44.711 71.34 44.3091 71.5005 43.8913 71.5H30.8588C30.441 71.5005 30.0391 71.34 29.7365 71.0519C29.4339 70.7639 29.2538 70.3703 29.2338 69.953L28.6553 63.3392C26.2527 62.4225 24.0114 61.1291 22.0155 59.5075L16.003 62.3122C15.6317 62.5046 15.2006 62.5464 14.7993 62.4289C14.398 62.3115 14.0573 62.0439 13.8483 61.6817L7.33529 50.44C7.12592 50.0785 7.0638 49.6503 7.16184 49.2442C7.25988 48.8381 7.51055 48.4854 7.86179 48.2592L13.299 44.4535C12.8919 41.9141 12.8919 39.3261 13.299 36.7867L7.86504 32.981C7.51466 32.7549 7.26459 32.4028 7.16659 31.9975C7.06859 31.5921 7.13015 31.1647 7.33854 30.8035L13.845 19.5227C14.0536 19.16 14.3939 18.8917 14.7953 18.7737C15.1967 18.6556 15.6281 18.6969 15.9998 18.889L22.0123 21.6937C24.0082 20.0731 26.2496 18.7808 28.652 17.8652L29.2305 11.2515C29.2498 10.8336 29.4294 10.4392 29.7321 10.1505C30.0348 9.8617 30.4372 9.70079 30.8555 9.70123H43.888H43.8913ZM37.375 29.25C40.3919 29.25 43.2852 30.4484 45.4184 32.5816C47.5516 34.7149 48.75 37.6081 48.75 40.625C48.75 43.6418 47.5516 46.5351 45.4184 48.6683C43.2852 50.8015 40.3919 52 37.375 52C34.3582 52 31.4649 50.8015 29.3317 48.6683C27.1985 46.5351 26 43.6418 26 40.625C26 37.6081 27.1985 34.7149 29.3317 32.5816C31.4649 30.4484 34.3582 29.25 37.375 29.25ZM37.375 32.5C35.2202 32.5 33.1535 33.356 31.6298 34.8797C30.1061 36.4035 29.25 38.4701 29.25 40.625C29.25 42.7799 30.1061 44.8465 31.6298 46.3702C33.1535 47.894 35.2202 48.75 37.375 48.75C39.5299 48.75 41.5966 47.894 43.1203 46.3702C44.644 44.8465 45.5 42.7799 45.5 40.625C45.5 38.4701 44.644 36.4035 43.1203 34.8797C41.5966 33.356 39.5299 32.5 37.375 32.5V32.5Z" fill="black"/>
</svg>
