<svg width="78" height="78" viewBox="0 0 78 78" fill="none" xmlns="http://www.w3.org/2000/svg">
<path d="M63.661 50.3489L57.7655 46.1564C58.7557 42.5157 58.7501 38.676 57.7493 35.0382L63.6643 30.8977L58.942 22.7272L52.364 25.7367C49.7053 23.0587 46.3762 21.1439 42.7245 20.1922L42.0973 12.9999H32.6528L32.0255 20.1922C28.3746 21.1452 25.0467 23.0612 22.3893 25.7399L15.808 22.7304L11.089 30.9009L17.004 35.0414C16.0028 38.6779 15.996 42.5165 16.9845 46.1564L11.089 50.3489L15.808 58.4804L22.3893 55.4677C25.0471 58.1452 28.375 60.06 32.0255 61.0122L32.6528 68.2044H42.0973L42.7245 61.0122C46.375 60.0599 49.7029 58.1451 52.3608 55.4677L58.942 58.4804L63.6643 50.3522L63.661 50.3489ZM43.8913 9.70117C44.3096 9.70073 44.712 9.86164 45.0147 10.1504C45.3174 10.4392 45.497 10.8335 45.5163 11.2514L46.0948 17.8652C48.4973 18.7807 50.7386 20.0731 52.7345 21.6937L58.747 18.8889C59.1184 18.6979 59.5491 18.6571 59.9497 18.7751C60.3503 18.8931 60.6901 19.1608 60.8985 19.5227L67.4148 30.8002C67.6242 31.1617 67.6863 31.5899 67.5882 31.996C67.4902 32.4021 67.2395 32.7548 66.8883 32.9809L61.4478 36.7899C61.8638 39.3834 61.8508 41.9672 61.451 44.4567L66.8883 48.2592C67.2404 48.4854 67.4917 48.8387 67.5897 49.2455C67.6878 49.6524 67.6252 50.0814 67.4148 50.4432L60.8985 61.6784C60.6901 62.0403 60.3503 62.308 59.9497 62.426C59.5491 62.544 59.1184 62.5032 58.747 62.3122L52.7345 59.5074C50.778 61.0999 48.5485 62.3999 46.0948 63.3392L45.5163 69.9529C45.4962 70.3702 45.3162 70.7638 45.0136 71.0519C44.711 71.3399 44.3091 71.5004 43.8913 71.4999H30.8588C30.441 71.5004 30.0391 71.3399 29.7365 71.0519C29.4339 70.7638 29.2538 70.3702 29.2338 69.9529L28.6553 63.3392C26.2527 62.4225 24.0114 61.129 22.0155 59.5074L16.003 62.3122C15.6317 62.5045 15.2006 62.5463 14.7993 62.4289C14.398 62.3114 14.0573 62.0438 13.8483 61.6817L7.33529 50.4399C7.12592 50.0784 7.0638 49.6502 7.16184 49.2441C7.25988 48.838 7.51055 48.4853 7.86179 48.2592L13.299 44.4534C12.8919 41.9141 12.8919 39.326 13.299 36.7867L7.86504 32.9809C7.51466 32.7548 7.26459 32.4027 7.16659 31.9974C7.06859 31.5921 7.13015 31.1646 7.33854 30.8034L13.845 19.5227C14.0536 19.16 14.3939 18.8917 14.7953 18.7736C15.1967 18.6556 15.6281 18.6969 15.9998 18.8889L22.0123 21.6937C24.0082 20.0731 26.2496 18.7807 28.652 17.8652L29.2305 11.2514C29.2498 10.8335 29.4294 10.4392 29.7321 10.1504C30.0348 9.86164 30.4372 9.70073 30.8555 9.70117H43.888H43.8913ZM37.375 29.2499C40.3919 29.2499 43.2852 30.4484 45.4184 32.5816C47.5516 34.7148 48.75 37.6081 48.75 40.6249C48.75 43.6418 47.5516 46.535 45.4184 48.6683C43.2852 50.8015 40.3919 51.9999 37.375 51.9999C34.3582 51.9999 31.4649 50.8015 29.3317 48.6683C27.1985 46.535 26 43.6418 26 40.6249C26 37.6081 27.1985 34.7148 29.3317 32.5816C31.4649 30.4484 34.3582 29.2499 37.375 29.2499ZM37.375 32.4999C35.2202 32.4999 33.1535 33.3559 31.6298 34.8797C30.1061 36.4034 29.25 38.47 29.25 40.6249C29.25 42.7798 30.1061 44.8464 31.6298 46.3702C33.1535 47.8939 35.2202 48.7499 37.375 48.7499C39.5299 48.7499 41.5966 47.8939 43.1203 46.3702C44.644 44.8464 45.5 42.7798 45.5 40.6249C45.5 38.47 44.644 36.4034 43.1203 34.8797C41.5966 33.3559 39.5299 32.4999 37.375 32.4999V32.4999Z" fill="black"/>
</svg>
