<svg width="20" height="24" viewBox="0 0 20 24" fill="none" xmlns="http://www.w3.org/2000/svg">
<path d="M19.0763 7.9956C18.9825 7.88036 18.8513 7.82572 18.7209 7.84755H13.6275V5.03426C13.6275 2.2539 11.8243 0 9.60006 0C7.37577 0 5.57265 2.2539 5.57265 5.03426V7.84755H0.479089C0.336931 7.84755 0.194818 7.84755 0.123717 7.9956C0.0282191 8.11032 -0.0160834 8.2764 0.00527433 8.43981L1.78209 20.5813C2.03031 22.275 3.20027 23.5144 4.57759 23.5426H14.6224C16.0037 23.5002 17.1712 22.251 17.4179 20.5517L19.1947 8.43981C19.2161 8.2764 19.1718 8.11032 19.0763 7.9956ZM6.52024 5.03426C6.52024 2.90812 7.8991 1.18454 9.60001 1.18454C11.3009 1.18454 12.6798 2.90812 12.6798 5.03426V7.84755H6.52024V5.03426ZM16.4703 20.4036C16.3107 21.526 15.5343 22.3472 14.6224 22.3581H4.57759C3.6657 22.3472 2.88929 21.526 2.72972 20.4036L1.04768 9.03208H18.1523L16.4703 20.4036Z" fill="black"/>
</svg>
